<mxfile host="Electron" agent="Mozilla/5.0 (Windows NT 10.0; Win64; x64) AppleWebKit/537.36 (KHTML, like Gecko) draw.io/28.2.5 Chrome/138.0.7204.251 Electron/37.6.1 Safari/537.36" version="28.2.5">
  <diagram name="Page-1" id="O5WXcYFZ2S0y1Yo8877V">
    <mxGraphModel dx="2108" dy="1056" grid="1" gridSize="10" guides="1" tooltips="1" connect="1" arrows="1" fold="1" page="1" pageScale="1" pageWidth="850" pageHeight="1100" math="0" shadow="0">
      <root>
        <mxCell id="0" />
        <mxCell id="1" parent="0" />
        <mxCell id="lsm1bGDpPcFfRCzxnVED-1" value="&lt;b&gt;&lt;font style=&quot;font-size: 26px;&quot;&gt;Integration Model &lt;/font&gt;&lt;/b&gt;(how to tables are related)" style="text;html=1;align=center;verticalAlign=middle;whiteSpace=wrap;rounded=0;" parent="1" vertex="1">
          <mxGeometry x="-130" y="20" width="590" height="60" as="geometry" />
        </mxCell>
        <mxCell id="lsm1bGDpPcFfRCzxnVED-2" value="crm_cust_info" style="swimlane;fontStyle=0;childLayout=stackLayout;horizontal=1;startSize=30;horizontalStack=0;resizeParent=1;resizeParentMax=0;resizeLast=0;collapsible=1;marginBottom=0;whiteSpace=wrap;html=1;rounded=1;fillColor=#dae8fc;strokeColor=#6c8ebf;fontSize=26;" parent="1" vertex="1">
          <mxGeometry x="360" y="410" width="190" height="90" as="geometry" />
        </mxCell>
        <mxCell id="lsm1bGDpPcFfRCzxnVED-3" value="&lt;b&gt;&lt;font style=&quot;font-size: 14px;&quot;&gt;cst_id&lt;/font&gt;&lt;/b&gt;" style="text;strokeColor=none;fillColor=none;align=left;verticalAlign=middle;spacingLeft=4;spacingRight=4;overflow=hidden;points=[[0,0.5],[1,0.5]];portConstraint=eastwest;rotatable=0;whiteSpace=wrap;html=1;" parent="lsm1bGDpPcFfRCzxnVED-2" vertex="1">
          <mxGeometry y="30" width="190" height="30" as="geometry" />
        </mxCell>
        <mxCell id="lsm1bGDpPcFfRCzxnVED-23" value="&lt;b&gt;&lt;font style=&quot;font-size: 14px;&quot;&gt;cst_key&lt;/font&gt;&lt;/b&gt;" style="text;strokeColor=none;fillColor=none;align=left;verticalAlign=middle;spacingLeft=4;spacingRight=4;overflow=hidden;points=[[0,0.5],[1,0.5]];portConstraint=eastwest;rotatable=0;whiteSpace=wrap;html=1;" parent="lsm1bGDpPcFfRCzxnVED-2" vertex="1">
          <mxGeometry y="60" width="190" height="30" as="geometry" />
        </mxCell>
        <mxCell id="lsm1bGDpPcFfRCzxnVED-6" value="customer information" style="text;html=1;align=center;verticalAlign=middle;whiteSpace=wrap;rounded=0;fontSize=18;" parent="1" vertex="1">
          <mxGeometry x="370" y="370" width="190" height="30" as="geometry" />
        </mxCell>
        <mxCell id="lsm1bGDpPcFfRCzxnVED-7" value="crm_prod_info" style="swimlane;fontStyle=0;childLayout=stackLayout;horizontal=1;startSize=30;horizontalStack=0;resizeParent=1;resizeParentMax=0;resizeLast=0;collapsible=1;marginBottom=0;whiteSpace=wrap;html=1;rounded=1;fillColor=#dae8fc;strokeColor=#6c8ebf;fontSize=26;" parent="1" vertex="1">
          <mxGeometry x="360" y="245" width="190" height="60" as="geometry" />
        </mxCell>
        <mxCell id="lsm1bGDpPcFfRCzxnVED-8" value="&lt;b&gt;&lt;font style=&quot;font-size: 14px;&quot;&gt;prd_key&lt;/font&gt;&lt;/b&gt;" style="text;strokeColor=none;fillColor=none;align=left;verticalAlign=middle;spacingLeft=4;spacingRight=4;overflow=hidden;points=[[0,0.5],[1,0.5]];portConstraint=eastwest;rotatable=0;whiteSpace=wrap;html=1;" parent="lsm1bGDpPcFfRCzxnVED-7" vertex="1">
          <mxGeometry y="30" width="190" height="30" as="geometry" />
        </mxCell>
        <mxCell id="lsm1bGDpPcFfRCzxnVED-9" value="current &amp;amp;history product information" style="text;html=1;align=center;verticalAlign=middle;whiteSpace=wrap;rounded=0;fontSize=16;" parent="1" vertex="1">
          <mxGeometry x="325" y="210" width="260" height="30" as="geometry" />
        </mxCell>
        <mxCell id="lsm1bGDpPcFfRCzxnVED-11" value="crm_sales_details" style="swimlane;fontStyle=0;childLayout=stackLayout;horizontal=1;startSize=30;horizontalStack=0;resizeParent=1;resizeParentMax=0;resizeLast=0;collapsible=1;marginBottom=0;whiteSpace=wrap;html=1;rounded=1;fillColor=#dae8fc;strokeColor=#6c8ebf;fontSize=26;" parent="1" vertex="1">
          <mxGeometry x="20" y="280" width="210" height="90" as="geometry" />
        </mxCell>
        <mxCell id="lsm1bGDpPcFfRCzxnVED-12" value="&lt;b&gt;&lt;font style=&quot;font-size: 14px;&quot;&gt;prd_key&lt;/font&gt;&lt;/b&gt;" style="text;strokeColor=none;fillColor=none;align=left;verticalAlign=middle;spacingLeft=4;spacingRight=4;overflow=hidden;points=[[0,0.5],[1,0.5]];portConstraint=eastwest;rotatable=0;whiteSpace=wrap;html=1;" parent="lsm1bGDpPcFfRCzxnVED-11" vertex="1">
          <mxGeometry y="30" width="210" height="30" as="geometry" />
        </mxCell>
        <mxCell id="lsm1bGDpPcFfRCzxnVED-17" value="&lt;b&gt;&lt;font style=&quot;font-size: 14px;&quot;&gt;cst_id&lt;/font&gt;&lt;/b&gt;" style="text;strokeColor=none;fillColor=none;align=left;verticalAlign=middle;spacingLeft=4;spacingRight=4;overflow=hidden;points=[[0,0.5],[1,0.5]];portConstraint=eastwest;rotatable=0;whiteSpace=wrap;html=1;" parent="lsm1bGDpPcFfRCzxnVED-11" vertex="1">
          <mxGeometry y="60" width="210" height="30" as="geometry" />
        </mxCell>
        <mxCell id="lsm1bGDpPcFfRCzxnVED-13" value="transactional records about sales &amp;amp; orders" style="text;html=1;align=center;verticalAlign=middle;whiteSpace=wrap;rounded=0;fontSize=16;" parent="1" vertex="1">
          <mxGeometry x="10" y="245" width="260" height="30" as="geometry" />
        </mxCell>
        <mxCell id="lsm1bGDpPcFfRCzxnVED-18" style="edgeStyle=orthogonalEdgeStyle;rounded=0;orthogonalLoop=1;jettySize=auto;html=1;entryX=-0.014;entryY=0.133;entryDx=0;entryDy=0;entryPerimeter=0;" parent="1" source="lsm1bGDpPcFfRCzxnVED-17" target="lsm1bGDpPcFfRCzxnVED-3" edge="1">
          <mxGeometry relative="1" as="geometry" />
        </mxCell>
        <mxCell id="lsm1bGDpPcFfRCzxnVED-19" style="edgeStyle=orthogonalEdgeStyle;rounded=0;orthogonalLoop=1;jettySize=auto;html=1;entryX=-0.019;entryY=-0.2;entryDx=0;entryDy=0;entryPerimeter=0;" parent="1" source="lsm1bGDpPcFfRCzxnVED-12" target="lsm1bGDpPcFfRCzxnVED-8" edge="1">
          <mxGeometry relative="1" as="geometry" />
        </mxCell>
        <mxCell id="lsm1bGDpPcFfRCzxnVED-20" value="erp_cust_az12" style="swimlane;fontStyle=0;childLayout=stackLayout;horizontal=1;startSize=30;horizontalStack=0;resizeParent=1;resizeParentMax=0;resizeLast=0;collapsible=1;marginBottom=0;whiteSpace=wrap;html=1;rounded=1;fillColor=#fff2cc;strokeColor=#d6b656;fontSize=26;" parent="1" vertex="1">
          <mxGeometry x="740" y="360" width="190" height="60" as="geometry" />
        </mxCell>
        <mxCell id="lsm1bGDpPcFfRCzxnVED-21" value="&lt;b&gt;&lt;font style=&quot;font-size: 14px;&quot;&gt;cid&lt;/font&gt;&lt;/b&gt;" style="text;strokeColor=none;fillColor=none;align=left;verticalAlign=middle;spacingLeft=4;spacingRight=4;overflow=hidden;points=[[0,0.5],[1,0.5]];portConstraint=eastwest;rotatable=0;whiteSpace=wrap;html=1;" parent="lsm1bGDpPcFfRCzxnVED-20" vertex="1">
          <mxGeometry y="30" width="190" height="30" as="geometry" />
        </mxCell>
        <mxCell id="lsm1bGDpPcFfRCzxnVED-22" value="extra customer information(BirthDate)" style="text;html=1;align=center;verticalAlign=middle;whiteSpace=wrap;rounded=0;fontSize=16;" parent="1" vertex="1">
          <mxGeometry x="720" y="330" width="280" height="30" as="geometry" />
        </mxCell>
        <mxCell id="lsm1bGDpPcFfRCzxnVED-25" style="edgeStyle=orthogonalEdgeStyle;rounded=0;orthogonalLoop=1;jettySize=auto;html=1;entryX=1.032;entryY=-0.156;entryDx=0;entryDy=0;entryPerimeter=0;" parent="1" source="lsm1bGDpPcFfRCzxnVED-21" target="lsm1bGDpPcFfRCzxnVED-23" edge="1">
          <mxGeometry relative="1" as="geometry" />
        </mxCell>
        <mxCell id="lsm1bGDpPcFfRCzxnVED-28" value="erp_loc_a101" style="swimlane;fontStyle=0;childLayout=stackLayout;horizontal=1;startSize=30;horizontalStack=0;resizeParent=1;resizeParentMax=0;resizeLast=0;collapsible=1;marginBottom=0;whiteSpace=wrap;html=1;rounded=1;fillColor=#fff2cc;strokeColor=#d6b656;fontSize=26;" parent="1" vertex="1">
          <mxGeometry x="750" y="500" width="190" height="60" as="geometry" />
        </mxCell>
        <mxCell id="lsm1bGDpPcFfRCzxnVED-29" value="&lt;b&gt;&lt;font style=&quot;font-size: 14px;&quot;&gt;cid&lt;/font&gt;&lt;/b&gt;" style="text;strokeColor=none;fillColor=none;align=left;verticalAlign=middle;spacingLeft=4;spacingRight=4;overflow=hidden;points=[[0,0.5],[1,0.5]];portConstraint=eastwest;rotatable=0;whiteSpace=wrap;html=1;" parent="lsm1bGDpPcFfRCzxnVED-28" vertex="1">
          <mxGeometry y="30" width="190" height="30" as="geometry" />
        </mxCell>
        <mxCell id="lsm1bGDpPcFfRCzxnVED-30" value="location of customers (Country)" style="text;html=1;align=center;verticalAlign=middle;whiteSpace=wrap;rounded=0;fontSize=16;" parent="1" vertex="1">
          <mxGeometry x="730" y="460" width="280" height="30" as="geometry" />
        </mxCell>
        <mxCell id="lsm1bGDpPcFfRCzxnVED-37" style="edgeStyle=orthogonalEdgeStyle;rounded=0;orthogonalLoop=1;jettySize=auto;html=1;entryX=1.014;entryY=-0.089;entryDx=0;entryDy=0;entryPerimeter=0;" parent="1" source="lsm1bGDpPcFfRCzxnVED-29" target="lsm1bGDpPcFfRCzxnVED-23" edge="1">
          <mxGeometry relative="1" as="geometry" />
        </mxCell>
        <mxCell id="lsm1bGDpPcFfRCzxnVED-39" value="erp_px_cat_g1v2" style="swimlane;fontStyle=0;childLayout=stackLayout;horizontal=1;startSize=30;horizontalStack=0;resizeParent=1;resizeParentMax=0;resizeLast=0;collapsible=1;marginBottom=0;whiteSpace=wrap;html=1;rounded=1;fillColor=#fff2cc;strokeColor=#d6b656;fontSize=26;" parent="1" vertex="1">
          <mxGeometry x="740" y="240" width="220" height="60" as="geometry" />
        </mxCell>
        <mxCell id="lsm1bGDpPcFfRCzxnVED-40" value="&lt;b&gt;&lt;font style=&quot;font-size: 14px;&quot;&gt;id&lt;/font&gt;&lt;/b&gt;" style="text;strokeColor=none;fillColor=none;align=left;verticalAlign=middle;spacingLeft=4;spacingRight=4;overflow=hidden;points=[[0,0.5],[1,0.5]];portConstraint=eastwest;rotatable=0;whiteSpace=wrap;html=1;" parent="lsm1bGDpPcFfRCzxnVED-39" vertex="1">
          <mxGeometry y="30" width="220" height="30" as="geometry" />
        </mxCell>
        <mxCell id="lsm1bGDpPcFfRCzxnVED-41" value="extra customer information(BirthDate)" style="text;html=1;align=center;verticalAlign=middle;whiteSpace=wrap;rounded=0;fontSize=16;" parent="1" vertex="1">
          <mxGeometry x="720" y="210" width="280" height="30" as="geometry" />
        </mxCell>
        <mxCell id="lsm1bGDpPcFfRCzxnVED-42" style="edgeStyle=orthogonalEdgeStyle;rounded=0;orthogonalLoop=1;jettySize=auto;html=1;entryX=1;entryY=0.5;entryDx=0;entryDy=0;" parent="1" source="lsm1bGDpPcFfRCzxnVED-40" target="lsm1bGDpPcFfRCzxnVED-8" edge="1">
          <mxGeometry relative="1" as="geometry" />
        </mxCell>
        <mxCell id="lsm1bGDpPcFfRCzxnVED-43" value="" style="rounded=1;whiteSpace=wrap;html=1;fillColor=none;dashed=1;" parent="1" vertex="1">
          <mxGeometry y="150" width="600" height="510" as="geometry" />
        </mxCell>
        <mxCell id="lsm1bGDpPcFfRCzxnVED-44" value="CRM" style="rounded=1;whiteSpace=wrap;html=1;fontSize=32;fontStyle=1;fillColor=#dae8fc;strokeColor=#6c8ebf;" parent="1" vertex="1">
          <mxGeometry x="220" y="120" width="120" height="60" as="geometry" />
        </mxCell>
        <mxCell id="lsm1bGDpPcFfRCzxnVED-45" value="" style="rounded=1;whiteSpace=wrap;html=1;fillColor=none;dashed=1;" parent="1" vertex="1">
          <mxGeometry x="680" y="140" width="450" height="520" as="geometry" />
        </mxCell>
        <mxCell id="lsm1bGDpPcFfRCzxnVED-46" value="&lt;font style=&quot;font-size: 29px;&quot;&gt;&lt;b&gt;ERP&lt;/b&gt;&lt;/font&gt;" style="rounded=1;whiteSpace=wrap;html=1;fillColor=#fff2cc;strokeColor=#d6b656;" parent="1" vertex="1">
          <mxGeometry x="860" y="120" width="120" height="60" as="geometry" />
        </mxCell>
        <mxCell id="MM7jKmEQiaTfvohOO13P-1" value="&lt;b&gt;PRODUCT&lt;/b&gt;" style="text;html=1;strokeColor=#b85450;fillColor=#f8cecc;align=center;verticalAlign=middle;whiteSpace=wrap;overflow=hidden;fontSize=20;" vertex="1" parent="1">
          <mxGeometry x="360" y="305" width="190" height="25" as="geometry" />
        </mxCell>
        <mxCell id="MM7jKmEQiaTfvohOO13P-4" value="&lt;b&gt;PRODUCT&lt;/b&gt;" style="text;html=1;strokeColor=#b85450;fillColor=#f8cecc;align=center;verticalAlign=middle;whiteSpace=wrap;overflow=hidden;fontSize=20;" vertex="1" parent="1">
          <mxGeometry x="755" y="305" width="190" height="25" as="geometry" />
        </mxCell>
        <mxCell id="MM7jKmEQiaTfvohOO13P-5" value="&lt;b&gt;CUSTOMER&lt;/b&gt;" style="text;html=1;strokeColor=#82b366;fillColor=#d5e8d4;align=center;verticalAlign=middle;whiteSpace=wrap;overflow=hidden;fontSize=20;" vertex="1" parent="1">
          <mxGeometry x="360" y="500" width="190" height="25" as="geometry" />
        </mxCell>
        <mxCell id="MM7jKmEQiaTfvohOO13P-6" value="&lt;b&gt;CUSTOMER&lt;/b&gt;" style="text;html=1;strokeColor=#82b366;fillColor=#d5e8d4;align=center;verticalAlign=middle;whiteSpace=wrap;overflow=hidden;fontSize=20;" vertex="1" parent="1">
          <mxGeometry x="740" y="420" width="190" height="25" as="geometry" />
        </mxCell>
        <mxCell id="MM7jKmEQiaTfvohOO13P-7" value="&lt;b&gt;CUSTOMER&lt;/b&gt;" style="text;html=1;strokeColor=#82b366;fillColor=#d5e8d4;align=center;verticalAlign=middle;whiteSpace=wrap;overflow=hidden;fontSize=20;" vertex="1" parent="1">
          <mxGeometry x="750" y="560" width="190" height="25" as="geometry" />
        </mxCell>
        <mxCell id="MM7jKmEQiaTfvohOO13P-8" value="&lt;b&gt;SALES&lt;/b&gt;" style="text;html=1;strokeColor=#9673a6;fillColor=#e1d5e7;align=center;verticalAlign=middle;whiteSpace=wrap;overflow=hidden;fontSize=20;" vertex="1" parent="1">
          <mxGeometry x="30" y="370" width="190" height="25" as="geometry" />
        </mxCell>
      </root>
    </mxGraphModel>
  </diagram>
</mxfile>
